HIERARCHY
ROOT root
{
	OFFSET 0.00 0.00 0.00
	CHANNELS 6 Xposition Yposition Zposition Zrotation Xrotation Yrotation
	JOINT lowerback
	{
		OFFSET 0 0 0
		CHANNELS 6 Xposition Yposition Zposition Zrotation Xrotation Yrotation
		JOINT upperback
		{
			OFFSET -0.214371 12.3768 -1.12219
			CHANNELS 6 Xposition Yposition Zposition Zrotation Xrotation Yrotation
			JOINT thorax
			{
				OFFSET -0.00137213 12.3873 0.296195
				CHANNELS 6 Xposition Yposition Zposition Zrotation Xrotation Yrotation
				JOINT lowerneck
				{
					OFFSET 0.0883157 12.5016 0.82912
					CHANNELS 6 Xposition Yposition Zposition Zrotation Xrotation Yrotation
					JOINT upperneck
					{
						OFFSET -1 10.1794 0.943522
						CHANNELS 6 Xposition Yposition Zposition Zrotation Xrotation Yrotation
						JOINT head
						{
							OFFSET 0.667525 10.2797 -1.57149
							CHANNELS 6 Xposition Yposition Zposition Zrotation Xrotation Yrotation
							End Site
							{
								OFFSET 0 0 0
							}
						}
					}
				}
				JOINT lclavicle
				{
					OFFSET 0.0883157 12.5016 0.82912
					CHANNELS 6 Xposition Yposition Zposition Zrotation Xrotation Yrotation
					JOINT lhumerus
					{
						OFFSET 20.61 4.45006 1.43784
						CHANNELS 6 Xposition Yposition Zposition Zrotation Xrotation Yrotation
						JOINT lradius
						{
							OFFSET 0 -30.3438 0
							CHANNELS 6 Xposition Yposition Zposition Zrotation Xrotation Yrotation
							JOINT lwrist
							{
								OFFSET 0 -18.964 0
								CHANNELS 6 Xposition Yposition Zposition Zrotation Xrotation Yrotation
								JOINT lhand
								{
									OFFSET 0 -9.48199 0
									CHANNELS 6 Xposition Yposition Zposition Zrotation Xrotation Yrotation
									JOINT lfingers
									{
										OFFSET 0 -3.17138 0
										CHANNELS 6 Xposition Yposition Zposition Zrotation Xrotation Yrotation
										End Site
										{
											OFFSET 0 -2.55685 0
										}
									}
								}
								JOINT lthumb
								{
									OFFSET 0 -9.48199 0
									CHANNELS 6 Xposition Yposition Zposition Zrotation Xrotation Yrotation
									End Site
									{
										OFFSET 0 -3.67114 0
									}
								}
							}
						}
					}
				}
				JOINT rclavicle
				{
					OFFSET 0.0883157 12.5016 0.82912
					CHANNELS 6 Xposition Yposition Zposition Zrotation Xrotation Yrotation
					JOINT rhumerus
					{
						OFFSET -20.61 4.45 1.44
						CHANNELS 6 Xposition Yposition Zposition Zrotation Xrotation Yrotation
						JOINT rradius
						{
							OFFSET 0 -29.5102 0
							CHANNELS 6 Xposition Yposition Zposition Zrotation Xrotation Yrotation
							JOINT rwrist
							{
								OFFSET 0 -19.2342 0
								CHANNELS 6 Xposition Yposition Zposition Zrotation Xrotation Yrotation
								JOINT rhand
								{
									OFFSET 0 -9.61712 0
									CHANNELS 6 Xposition Yposition Zposition Zrotation Xrotation Yrotation
									JOINT rfingers
									{
										OFFSET 0 -3.29215 0
										CHANNELS 6 Xposition Yposition Zposition Zrotation Xrotation Yrotation
										End Site
										{
											OFFSET 0 -2.557 0
										}
									}
								}
								JOINT rthumb
								{
									OFFSET 0 -9.61712 0
									CHANNELS 6 Xposition Yposition Zposition Zrotation Xrotation Yrotation
									End Site
									{
										OFFSET 0 -3.671 0
									}
								}
							}
						}
					}
				}
			}
		}
	}
	JOINT rfemur
	{
		OFFSET -8.46272 -9.62775 4.76248
		CHANNELS 6 Xposition Yposition Zposition Zrotation Xrotation Yrotation
		JOINT rtibia
		{
			OFFSET 1.00552e-005 -38.0331 0
			CHANNELS 6 Xposition Yposition Zposition Zrotation Xrotation Yrotation
			JOINT rfoot
			{
				OFFSET 1.14428e-005 -43.2815 0
				CHANNELS 6 Xposition Yposition Zposition Zrotation Xrotation Yrotation
				JOINT rtoes
				{
					OFFSET 0 -14.1868 -3.08763
					CHANNELS 6 Xposition Yposition Zposition Zrotation Xrotation Yrotation
					End Site
					{
						OFFSET 0 -7.27332 0
					}
				}
			}
		}
	}
	JOINT lfemur
	{
		OFFSET 9.10607 -9.62778 4.76249
		CHANNELS 6 Xposition Yposition Zposition Zrotation Xrotation Yrotation
		JOINT ltibia
		{
			OFFSET -1.01399e-005 -38.3535 0
			CHANNELS 6 Xposition Yposition Zposition Zrotation Xrotation Yrotation
			JOINT lfoot
			{
				OFFSET -1.12937e-005 -42.7176 0
				CHANNELS 6 Xposition Yposition Zposition Zrotation Xrotation Yrotation
				JOINT ltoes
				{
					OFFSET 0 -13.9965 -2.83857
					CHANNELS 6 Xposition Yposition Zposition Zrotation Xrotation Yrotation
					End Site
					{
						OFFSET 0 -7.16348 0
					}
				}
			}
		}
	}
}
MOTION
Frames: 5
Frame Time: 0.00833333
1.06596	96.1572	118.466	4.28378	7.05259	5.73301	0 0 0 -5.88662	-0.23464	-0.324665	-0.214371 12.3768 -1.12219 0.595198	-3.28019	-0.512059	-0.00137213 12.3873 0.296195 3.95822	-3.20672	-0.0780258	0.0883157 12.5016 0.82912 -3.6935	-10.8091	-0.40833	-1 10.1794 0.943522 0.627511	9.26404	-0.0446808	0.667525 10.2797 -1.57149 0.782995	4.54305	-0.113159	0.0883157 12.5016 0.82912 -15	0	-0	20.61 4.45006 1.43784 13.703	-22.0473	171.495	0 -30.3438 0 -0	55.0592	-0	0 -18.964 0 1.40332e-014	-5.29406e-017	-90.4323	0 -9.48199 0 1.22245	4.37968	-2.58917e-014	0 -3.17138 0 -0	7.12502	-0	0 -9.48199 0 25	15	-1.36605e-015	0.0883157 12.5016 0.82912 15	0	-0	-20.61 4.45 1.44 -5.85086	29.4838	120.044	0 -29.5102 0 -0	15.3631	-0	0 -19.2342 0 3.0528e-015	-5.78979e-015	145.603	0 -9.61712 0 1.22	4.38	-0	0 -3.29215 0 -0	7.12502	-0	0 -9.61712 0 -104.914	15	-7.97034e-015	-8.46272 -9.62775 4.76248 -3.22952	-44.132	4.57686	1.00552e-005 -38.0331 0 -0	21.2739	-0	1.14428e-005 -43.2815 0 -1.40985e-014	-82.3254	-1.45009e-014	0 -14.1868 -3.08763 -0	-34.1142	-0	9.10607 -9.62778 4.76249 -6.51278	19.1481	-1.26336	-1.01399e-005 -38.3535 0 -0	-0.621372	-0	-1.12937e-005 -42.7176 0 1.57406e-015	-65.1689	1.77832e-015	0 -13.9965 -2.83857 -0	-23.7995	-0
1.03213	95.9871	119.849	4.29332	6.99394	5.79559	0 0 0 -5.68363	-0.160926	-0.345613	-0.214371 12.3768 -1.12219 0.648059	-3.29662	-0.541288	-0.00137213 12.3873 0.296195 3.90067	-3.26196	-0.0957334	0.0883157 12.5016 0.82912 -3.73587	-10.9506	-0.417401	-1 10.1794 0.943522 0.478728	9.27752	-0.0264206	0.667525 10.2797 -1.57149 0.746019	4.57024	-0.115169	0.0883157 12.5016 0.82912 -15	0	-0	20.61 4.45006 1.43784 13.8313	-21.9926	171.477	0 -30.3438 0 -0	56.4012	-0	0 -18.964 0 1.40333e-014	-3.90418e-017	-90.3188	0 -9.48199 0 1.22245	4.37968	-2.58917e-014	0 -3.17138 0 -0	7.12502	-0	0 -9.48199 0 25	15	-1.36605e-015	0.0883157 12.5016 0.82912 15	0	-0	-20.61 4.45 1.44 -5.62308	29.7185	118.217	0 -29.5102 0 -0	15.1825	-0	0 -19.2342 0 3.1375e-015	-5.84687e-015	146.437	0 -9.61712 0 1.22	4.38	-0	0 -3.29215 0 -0	7.12502	-0	0 -9.61712 0 -104.914	15	-7.97034e-015	-8.46272 -9.62775 4.76248 -3.09805	-44.2081	4.78045	1.00552e-005 -38.0331 0 -0	22.0486	-0	1.14428e-005 -43.2815 0 -1.28279e-014	-81.5912	-1.32427e-014	0 -14.1868 -3.08763 -0	-34.0908	-0	9.10607 -9.62778 4.76249 -6.31825	20.1237	-1.54438	-1.01399e-005 -38.3535 0 -0	-0.634012	-0	-1.12937e-005 -42.7176 0 1.50904e-015	-64.259	1.71952e-015	0 -13.9965 -2.83857 -0	-25.3065	-0
1.00252	95.8318	121.262	4.24946	6.93363	5.78732	0 0 0 -5.39545	-0.0983582	-0.351	-0.214371 12.3768 -1.12219 0.71891	-3.31584	-0.546955	-0.00137213 12.3873 0.296195 3.81231	-3.31614	-0.104165	0.0883157 12.5016 0.82912 -3.77259	-11.0852	-0.401473	-1 10.1794 0.943522 0.30061	9.29747	0.0276818	0.667525 10.2797 -1.57149 0.702864	4.59793	-0.10131	0.0883157 12.5016 0.82912 -15	0	-0	20.61 4.45006 1.43784 13.9671	-21.7802	171.51	0 -30.3438 0 -0	57.7044	-0	0 -18.964 0 1.40334e-014	-2.60725e-017	-90.2129	0 -9.48199 0 1.22245	4.37968	-2.58917e-014	0 -3.17138 0 -0	7.12502	-0	0 -9.48199 0 25	15	-1.36605e-015	0.0883157 12.5016 0.82912 15	0	-0	-20.61 4.45 1.44 -5.48088	29.9219	116.723	0 -29.5102 0 -0	15.0066	-0	0 -19.2342 0 3.20428e-015	-5.89064e-015	147.089	0 -9.61712 0 1.22	4.38	-0	0 -3.29215 0 -0	7.12502	-0	0 -9.61712 0 -104.914	15	-7.97034e-015	-8.46272 -9.62775 4.76248 -2.83617	-44.2577	4.98149	1.00552e-005 -38.0331 0 -0	23.0815	-0	1.14428e-005 -43.2815 0 -1.14792e-014	-80.6424	-1.19102e-014	0 -14.1868 -3.08763 -0	-33.5902	-0	9.10607 -9.62778 4.76249 -6.09301	20.7723	-1.7712	-1.01399e-005 -38.3535 0 -0	-0.0206708	-0	-1.12937e-005 -42.7176 0 1.44779e-015	-63.3434	1.66457e-015	0 -13.9965 -2.83857 -0	-26.7785	-0
0.977287	95.6898	122.724	4.14772	6.87843	5.712	0 0 0 -5.02108	-0.0508804	-0.342301	-0.214371 12.3768 -1.12219 0.80903	-3.33941	-0.530508	-0.00137213 12.3873 0.296195 3.69395	-3.36845	-0.104094	0.0883157 12.5016 0.82912 -3.79858	-11.2078	-0.357895	-1 10.1794 0.943522 0.0897175	9.31746	0.120405	0.667525 10.2797 -1.57149 0.651959	4.62346	-0.0701677	0.0883157 12.5016 0.82912 -15	0	-0	20.61 4.45006 1.43784 14.1002	-21.4105	171.593	0 -30.3438 0 -0	58.9632	-0	0 -18.964 0 1.40334e-014	-1.30788e-017	-90.1068	0 -9.48199 0 1.22245	4.37968	-2.58917e-014	0 -3.17138 0 -0	7.12502	-0	0 -9.48199 0 25	15	-1.36605e-015	0.0883157 12.5016 0.82912 15	0	-0	-20.61 4.45 1.44 -5.42397	30.1074	115.558	0 -29.5102 0 -0	14.8413	-0	0 -19.2342 0 3.2549e-015	-5.92309e-015	147.58	0 -9.61712 0 1.22	4.38	-0	0 -3.29215 0 -0	7.12502	-0	0 -9.61712 0 -104.914	15	-7.97034e-015	-8.46272 -9.62775 4.76248 -2.4499	-44.2885	5.17464	1.00552e-005 -38.0331 0 -0	24.3202	-0	1.14428e-005 -43.2815 0 -1.01741e-014	-79.498	-1.06246e-014	0 -14.1868 -3.08763 -0	-32.6074	-0	9.10607 -9.62778 4.76249 -5.84114	21.0752	-1.93802	-1.01399e-005 -38.3535 0 -0	1.22325	-0	-1.12937e-005 -42.7176 0 1.38746e-015	-62.3806	1.61087e-015	0 -13.9965 -2.83857 -0	-28.1021	-0
0.956791	95.5567	124.223	3.9881	6.83251	5.5752	0 0 0 -4.56498	-0.0190197	-0.321105	-0.214371 12.3768 -1.12219 0.918492	-3.36793	-0.493824	-0.00137213 12.3873 0.296195 3.54823	-3.41888	-0.096335	0.0883157 12.5016 0.82912 -3.80868	-11.3145	-0.28567	-1 10.1794 0.943522 -0.15665	9.33121	0.252225	0.667525 10.2797 -1.57149 0.591704	4.64441	-0.0213936	0.0883157 12.5016 0.82912 -15	0	-0	20.61 4.45006 1.43784 14.2192	-20.888	171.722	0 -30.3438 0 -0	60.1697	-0	0 -18.964 0 -0	0	-90	0 -9.48199 0 1.22245	4.37968	-2.58917e-014	0 -3.17138 0 -0	7.12502	-0	0 -9.48199 0 25	15	-1.36605e-015	0.0883157 12.5016 0.82912 15	0	-0	-20.61 4.45 1.44 -5.44887	30.2799	114.706	0 -29.5102 0 -0	14.692	-0	0 -19.2342 0 3.29157e-015	-5.94622e-015	147.934	0 -9.61712 0 1.22	4.38	-0	0 -3.29215 0 -0	7.12502	-0	0 -9.61712 0 -104.914	15	-7.97034e-015	-8.46272 -9.62775 4.76248 -1.95287	-44.3066	5.35249	1.00552e-005 -38.0331 0 -0	25.7142	-0	1.14428e-005 -43.2815 0 -8.9952e-015	-78.1975	-9.4679e-015	0 -14.1868 -3.08763 -0	-31.1897	-0	9.10607 -9.62778 4.76249 -5.56772	21.0289	-2.04325	-1.01399e-005 -38.3535 0 -0	3.07583	-0	-1.12937e-005 -42.7176 0 1.32574e-015	-61.3273	1.55645e-015	0 -13.9965 -2.83857 -0	-29.1602	-0
